<?xml version="1.0" encoding="UTF-8"?>
<svg version="1.1" xmlns="http://www.w3.org/2000/svg" width="512" height="512">
<path d="M0 0 C29.46561152 24.76758618 49.6823048 58.16777877 53.6875 96.8125 C53.80912065 98.54052676 53.91429449 100.26982006 54 102 C54.04125 102.77085937 54.0825 103.54171875 54.125 104.3359375 C54.36310819 113.29475807 53.07570211 122.51382027 51.35316467 131.29891968 C50.95696009 135.45104782 51.56888517 138.08337554 52.81420898 142.04931641 C53.01888794 142.7153035 53.22356689 143.38129059 53.43444824 144.06745911 C54.10851926 146.24982751 54.80237285 148.42536951 55.49609375 150.6015625 C55.96980582 152.12612459 56.44203741 153.65114741 56.91285706 155.17660522 C58.15177739 159.17994279 59.40661046 163.17809202 60.6661377 167.17498779 C62.68191617 173.57753279 64.67787384 179.98621113 66.66523933 186.39762497 C67.36097156 188.63156101 68.06623981 190.86232107 68.77256775 193.09292603 C69.20082928 194.46500883 69.62878838 195.83718608 70.05639648 197.20947266 C70.43247543 198.40303375 70.80855438 199.59659485 71.19602966 200.82632446 C71.94255368 203.77323046 72.38850767 205.99166883 72 209 C69.9184678 211.1745113 67.96235308 212.95677241 65.625 214.8125 C64.99319824 215.33295898 64.36139648 215.85341797 63.71044922 216.38964844 C61.8188473 217.94180572 59.91172848 219.47273911 58 221 C56.94742036 221.85225198 55.89529355 222.70506373 54.84375 223.55859375 C52.57416995 225.38795353 50.29469276 227.20231442 48 229 C28.38532152 219.84031524 9.01303334 210.22184851 -10.1015625 200.05859375 C-10.77823975 199.70595459 -11.45491699 199.35331543 -12.15209961 198.98999023 C-13.75146279 198.1331508 -15.3084577 197.1980998 -16.85546875 196.25 C-21.44342502 194.42621614 -25.79484019 194.60018884 -30.6875 194.5625 C-67.73140158 193.56067825 -97.56209493 176.36042439 -123.36328125 150.64453125 C-150.39093238 121.98465963 -161.14498721 86.27398398 -160.17919922 47.57519531 C-159.09361828 25.91682024 -148.29898717 6.22050643 -132.80078125 -8.5703125 C-94.22980557 -42.03076839 -36.73458254 -29.58765373 0 0 Z M-85 -3 C-83.16045404 0.19848983 -81.25330318 3.04625639 -78.8125 5.8125 C-78.28269531 6.41707031 -77.75289063 7.02164063 -77.20703125 7.64453125 C-76.80871094 8.09183594 -76.41039063 8.53914063 -76 9 C-72.23511958 7.27845212 -69.84936103 5.00765886 -67 2 C-68.51712625 -0.62869487 -68.51712625 -0.62869487 -71 -3 C-74.49975135 -3.60385692 -74.49975135 -3.60385692 -78.25 -3.3125 C-79.51328125 -3.26738281 -80.7765625 -3.22226563 -82.078125 -3.17578125 C-83.04234375 -3.11777344 -84.0065625 -3.05976563 -85 -3 Z M-100 1 C-103.96 2.98 -103.96 2.98 -108 5 C-108 9.08935632 -106.37048964 10.28958478 -103.75 13.375 C-102.96109375 14.31085938 -102.1721875 15.24671875 -101.359375 16.2109375 C-100.58078125 17.13132812 -99.8021875 18.05171875 -99 19 C-97.6611204 20.66221447 -96.32590291 22.32741606 -95 24 C-91.12867972 23.42647107 -88.91827204 21.51295648 -86 19 C-87.40212252 14.77089533 -89.41375181 12.12217785 -92.4375 8.875 C-93.21996094 8.02679688 -94.00242187 7.17859375 -94.80859375 6.3046875 C-96.51342529 4.51172741 -98.25054916 2.74945084 -100 1 Z M-48 3 C-46.3718356 6.75730247 -43.98598083 9.616823 -41.375 12.75 C-40.55773437 13.73484375 -39.74046875 14.7196875 -38.8984375 15.734375 C-38.27195312 16.48203125 -37.64546875 17.2296875 -37 18 C-33.18315774 16.44499019 -30.80804268 13.96404505 -28 11 C-30.57858967 9.65673469 -33.16217421 8.32525335 -35.75 7 C-36.47960937 6.6184375 -37.20921875 6.236875 -37.9609375 5.84375 C-38.66992188 5.4828125 -39.37890625 5.121875 -40.109375 4.75 C-41.08342285 4.24726563 -41.08342285 4.24726563 -42.07714844 3.734375 C-44.27973851 2.76214375 -44.27973851 2.76214375 -48 3 Z M-63.625 16 C-64.57246094 16.8353125 -64.57246094 16.8353125 -65.5390625 17.6875 C-66.02117187 18.120625 -66.50328125 18.55375 -67 19 C-63.46386286 23.78775956 -59.85516296 28.46451416 -56 33 C-52.12867972 32.42647107 -49.91827204 30.51295648 -47 28 C-48.41418383 23.73439116 -50.48251131 20.9940014 -53.5 17.6875 C-54.2940625 16.80449219 -55.088125 15.92148438 -55.90625 15.01171875 C-59.33158063 11.72058951 -60.45826607 13.18512539 -63.625 16 Z M-120 15 C-121.0536394 16.30756357 -122.06853634 17.64651756 -123.0625 19 C-123.61035156 19.7425 -124.15820312 20.485 -124.72265625 21.25 C-125.35494141 22.11625 -125.35494141 22.11625 -126 23 C-122.21168028 29.09425346 -117.58506716 34.49400055 -113 40 C-109.18315774 38.44499019 -106.80804268 35.96404505 -104 33 C-111.36998299 23.89020508 -111.36998299 23.89020508 -119 15 C-119.33 15 -119.66 15 -120 15 Z M-18 20 C-21.3 22.64 -24.6 25.28 -28 28 C-24.17799117 33.18701198 -20.24255674 38.15136373 -16 43 C-9.66476557 38.39353807 -9.66476557 38.39353807 -4 33 C-5.37267784 29.93007025 -6.94533241 27.75791372 -9.3125 25.375 C-9.88613281 24.78460938 -10.45976562 24.19421875 -11.05078125 23.5859375 C-13.30733833 21.58909763 -13.30733833 21.58909763 -18 20 Z M-78 28 C-81.465 30.97 -81.465 30.97 -85 34 C-83.09944803 37.80110395 -81.08087842 40.50294589 -78.375 43.75 C-77.55773437 44.73484375 -76.74046875 45.7196875 -75.8984375 46.734375 C-75.27195312 47.48203125 -74.64546875 48.2296875 -74 49 C-70.18315774 47.44499019 -67.80804268 44.96404505 -65 42 C-66.7876167 39.8506749 -68.57982184 37.70549393 -70.375 35.5625 C-70.88289063 34.95083984 -71.39078125 34.33917969 -71.9140625 33.70898438 C-74.56675456 30.39255065 -74.56675456 30.39255065 -78 28 Z M-42.5625 40 C-43.20316406 40.556875 -43.84382813 41.11375 -44.50390625 41.6875 C-44.99761719 42.120625 -45.49132812 42.55375 -46 43 C-44.3718356 46.75730247 -41.98598083 49.616823 -39.375 52.75 C-38.55773437 53.73484375 -37.74046875 54.7196875 -36.8984375 55.734375 C-36.27195312 56.48203125 -35.64546875 57.2296875 -35 58 C-31.18315774 56.44499019 -28.80804268 53.96404505 -26 51 C-27.97453164 48.66270866 -29.95537469 46.33085338 -31.9375 44 C-32.50146484 43.33226562 -33.06542969 42.66453125 -33.64648438 41.9765625 C-34.18466797 41.34492188 -34.72285156 40.71328125 -35.27734375 40.0625 C-35.77484131 39.47597656 -36.27233887 38.88945312 -36.78491211 38.28515625 C-37.18589111 37.86105469 -37.58687012 37.43695313 -38 37 C-39.87824891 37 -41.21518837 38.82416439 -42.5625 40 Z M-133 38 C-134.94483883 44.4160038 -134.94483883 44.4160038 -135 51 C-133.10415891 53.31377147 -133.10415891 53.31377147 -131 55 C-127.18315774 53.44499019 -124.80804268 50.96404505 -122 48 C-123.4515549 46.32742645 -124.91144409 44.66208242 -126.375 43 C-127.18710938 42.071875 -127.99921875 41.14375 -128.8359375 40.1875 C-129.55007812 39.465625 -130.26421875 38.74375 -131 38 C-131.66 38 -132.32 38 -133 38 Z M-1.625 47.5 C-3.12933594 48.75296875 -3.12933594 48.75296875 -4.6640625 50.03125 C-5.82035156 51.00578125 -5.82035156 51.00578125 -7 52 C-5.3718356 55.75730247 -2.98598083 58.616823 -0.375 61.75 C0.44226563 62.73484375 1.25953125 63.7196875 2.1015625 64.734375 C2.72804687 65.48203125 3.35453125 66.2296875 4 67 C6.99220268 65.63629701 9.29026529 64.05091917 11.75 61.875 C12.36359375 61.33617187 12.9771875 60.79734375 13.609375 60.2421875 C14.29773438 59.62730469 14.29773438 59.62730469 15 59 C13.5476835 52.86799698 10.00613024 47.78090071 6 43 C2.67314326 43 0.85694814 45.42208993 -1.625 47.5 Z M-100.1875 46.5 C-101.115625 47.325 -102.04375 48.15 -103 49 C-102.45857492 53.08443481 -100.31459905 55.17474982 -97.5625 58.125 C-96.35787109 59.42824219 -96.35787109 59.42824219 -95.12890625 60.7578125 C-93.77021327 62.18880291 -92.39531003 63.60468997 -91 65 C-88.69 63.02 -86.38 61.04 -84 59 C-85.09606707 54.61573173 -86.54369822 52.71353421 -89.375 49.25 C-90.16648437 48.26515625 -90.95796875 47.2803125 -91.7734375 46.265625 C-92.50820312 45.51796875 -93.24296875 44.7703125 -94 44 C-97.3866371 44 -97.77669287 44.35706033 -100.1875 46.5 Z M-61.625 56 C-62.57246094 56.8353125 -62.57246094 56.8353125 -63.5390625 57.6875 C-64.02117187 58.120625 -64.50328125 58.55375 -65 59 C-61.19695186 64.19210472 -57.23841458 69.15609762 -53 74 C-50.36 72.02 -47.72 70.04 -45 68 C-46.41418383 63.73439116 -48.48251131 60.9940014 -51.5 57.6875 C-52.2940625 56.80449219 -53.088125 55.92148438 -53.90625 55.01171875 C-57.33158063 51.72058951 -58.45826607 53.18512539 -61.625 56 Z M-118.625 62 C-119.57246094 62.8353125 -119.57246094 62.8353125 -120.5390625 63.6875 C-121.02117187 64.120625 -121.50328125 64.55375 -122 65 C-118.59008792 70.54110713 -114.38579957 75.20968493 -110 80 C-107.36 78.02 -104.72 76.04 -102 74 C-103.8774821 70.24503579 -105.86141402 67.48826461 -108.5 64.25 C-109.2940625 63.26515625 -110.088125 62.2803125 -110.90625 61.265625 C-111.5971875 60.51796875 -112.288125 59.7703125 -113 59 C-115.77042109 59 -116.58164956 60.1836885 -118.625 62 Z M-22.625 65 C-23.57246094 65.8353125 -23.57246094 65.8353125 -24.5390625 66.6875 C-25.02117187 67.120625 -25.50328125 67.55375 -26 68 C-22.19695186 73.19210472 -18.23841458 78.15609762 -14 83 C-11.36 81.02 -8.72 79.04 -6 77 C-7.41418383 72.73439116 -9.48251131 69.9940014 -12.5 66.6875 C-13.2940625 65.80449219 -14.088125 64.92148438 -14.90625 64.01171875 C-18.33158063 60.72058951 -19.45826607 62.18512539 -22.625 65 Z M-79.0625 71 C-80.16271484 71.8353125 -80.16271484 71.8353125 -81.28515625 72.6875 C-81.85105469 73.120625 -82.41695313 73.55375 -83 74 C-80.88060821 77.71060708 -78.5076108 80.99883918 -75.8125 84.3125 C-75.09707031 85.19550781 -74.38164063 86.07851562 -73.64453125 86.98828125 C-73.10183594 87.65214844 -72.55914062 88.31601563 -72 89 C-68.59787701 87.38617243 -65.89675481 85.41396234 -63 83 C-64.62771018 79.26427172 -66.98033305 76.38341608 -69.5625 73.25 C-70.36816406 72.26515625 -71.17382812 71.2803125 -72.00390625 70.265625 C-72.66261719 69.51796875 -73.32132813 68.7703125 -74 68 C-75.95151627 68 -77.58068747 69.87099998 -79.0625 71 Z M16.375 74 C15.42753906 74.8353125 15.42753906 74.8353125 14.4609375 75.6875 C13.97882813 76.120625 13.49671875 76.55375 13 77 C16.80304814 82.19210472 20.76158542 87.15609762 25 92 C25.66 91.67 26.32 91.34 27 91 C25.90109517 84.08336373 24.43430815 77.57263201 22 71 C19.22957891 71 18.41835044 72.1836885 16.375 74 Z M-134 75 C-132.90109517 81.91663627 -131.43430815 88.42736799 -129 95 C-125.18315774 93.44499019 -122.80804268 90.96404505 -120 88 C-121.76044309 85.82410429 -123.53227897 83.6596124 -125.3125 81.5 C-125.81201172 80.87996094 -126.31152344 80.25992188 -126.82617188 79.62109375 C-128.15152178 78.02365214 -129.57104134 76.50547309 -131 75 C-131.99 75 -132.98 75 -134 75 Z M-36 77 C-38.64 78.98 -41.28 80.96 -44 83 C-42.09944803 86.80110395 -40.08087842 89.50294589 -37.375 92.75 C-36.55773437 93.73484375 -35.74046875 94.7196875 -34.8984375 95.734375 C-34.27195312 96.48203125 -33.64546875 97.2296875 -33 98 C-29.18315774 96.44499019 -26.80804268 93.96404505 -24 91 C-25.4354503 89.22750476 -26.87343803 87.45706424 -28.3125 85.6875 C-29.51326172 84.20830078 -29.51326172 84.20830078 -30.73828125 82.69921875 C-33.03912697 79.873025 -33.03912697 79.873025 -36 77 Z M-98.1875 86.5 C-99.115625 87.325 -100.04375 88.15 -101 89 C-99.58319756 93.32046898 -97.46236215 96.00461199 -94.375 99.3125 C-93.14910156 100.63701172 -93.14910156 100.63701172 -91.8984375 101.98828125 C-91.27195312 102.65214844 -90.64546875 103.31601563 -90 104 C-86.23511958 102.27845212 -83.84936103 100.00765886 -81 97 C-81.62648438 96.31292969 -82.25296875 95.62585938 -82.8984375 94.91796875 C-83.71570313 94.01691406 -84.53296875 93.11585938 -85.375 92.1875 C-86.18710938 91.29417969 -86.99921875 90.40085937 -87.8359375 89.48046875 C-90 87 -90 87 -92 84 C-95.3866371 84 -95.77669287 84.35706033 -98.1875 86.5 Z M-2.1875 89.5 C-3.115625 90.325 -4.04375 91.15 -5 92 C-3.3718356 95.75730247 -0.98598083 98.616823 1.625 101.75 C2.44226563 102.73484375 3.25953125 103.7196875 4.1015625 104.734375 C4.72804687 105.48203125 5.35453125 106.2296875 6 107 C9.81684226 105.44499019 12.19195732 102.96404505 15 100 C13.23955691 97.82410429 11.46772103 95.6596124 9.6875 93.5 C9.18798828 92.87996094 8.68847656 92.25992188 8.17382812 91.62109375 C6.84847822 90.02365214 5.42895866 88.50547309 4 87 C0.6133629 87 0.22330713 87.35706033 -2.1875 89.5 Z M-57.60546875 94.53125 C-58.12753906 95.1809375 -58.64960937 95.830625 -59.1875 96.5 C-59.71730469 97.1496875 -60.24710937 97.799375 -60.79296875 98.46875 C-61.19128906 98.9740625 -61.58960937 99.479375 -62 100 C-60.5645497 101.77249524 -59.12656197 103.54293576 -57.6875 105.3125 C-56.88699219 106.29863281 -56.08648437 107.28476563 -55.26171875 108.30078125 C-52.96087303 111.126975 -52.96087303 111.126975 -50 114 C-47.36 111.69 -44.72 109.38 -42 107 C-43.9858179 104.32145493 -45.98277855 101.65473955 -48 99 C-48.4640625 98.38382812 -48.928125 97.76765625 -49.40625 97.1328125 C-50.53323133 95.69659849 -51.76034426 94.34016836 -53 93 C-56.00795167 92.65490872 -56.00795167 92.65490872 -57.60546875 94.53125 Z M-117.0625 103 C-117.98160156 103.7425 -118.90070313 104.485 -119.84765625 105.25 C-120.91306641 106.11625 -120.91306641 106.11625 -122 107 C-120.72355682 111.39663761 -119.06982443 114.68209244 -116.375 118.375 C-115.74335937 119.24898437 -115.11171875 120.12296875 -114.4609375 121.0234375 C-113.97882813 121.67570312 -113.49671875 122.32796875 -113 123 C-109.20206721 121.68302856 -106.64671732 120.08343619 -103.6875 117.375 C-102.99011719 116.74335938 -102.29273437 116.11171875 -101.57421875 115.4609375 C-101.05472656 114.97882813 -100.53523438 114.49671875 -100 114 C-101.62771018 110.26427172 -103.98033305 107.38341608 -106.5625 104.25 C-107.36816406 103.26515625 -108.17382812 102.2803125 -109.00390625 101.265625 C-109.66261719 100.51796875 -110.32132813 99.7703125 -111 99 C-113.17255579 99 -115.49414258 101.72943196 -117.0625 103 Z M-19.625 105 C-20.57246094 105.8353125 -20.57246094 105.8353125 -21.5390625 106.6875 C-22.02117187 107.120625 -22.50328125 107.55375 -23 108 C-21.3718356 111.75730247 -18.98598083 114.616823 -16.375 117.75 C-15.55773437 118.73484375 -14.74046875 119.7196875 -13.8984375 120.734375 C-13.27195313 121.48203125 -12.64546875 122.2296875 -12 123 C-9.36 121.02 -6.72 119.04 -4 117 C-5.10195115 112.59219541 -6.572218 110.71584511 -9.4375 107.25 C-10.24058594 106.26515625 -11.04367188 105.2803125 -11.87109375 104.265625 C-12.57363281 103.51796875 -13.27617187 102.7703125 -14 102 C-16.77042109 102 -17.58164956 103.1836885 -19.625 105 Z M-77.0625 111 C-78.16271484 111.8353125 -78.16271484 111.8353125 -79.28515625 112.6875 C-79.85105469 113.120625 -80.41695313 113.55375 -81 114 C-77.59008792 119.54110713 -73.38579957 124.20968493 -69 129 C-66.36 127.02 -63.72 125.04 -61 123 C-62.88900109 119.22199782 -64.89027889 116.49269528 -67.5625 113.25 C-68.36816406 112.26515625 -69.17382812 111.2803125 -70.00390625 110.265625 C-70.66261719 109.51796875 -71.32132813 108.7703125 -72 108 C-73.95151627 108 -75.58068747 109.87099998 -77.0625 111 Z M23 111 C20.36 112.98 17.72 114.96 15 117 C18.3526111 121.67806201 21.2513389 125.64800393 26 129 C27.99768778 122.04795718 27.99768778 122.04795718 28 115 C25.60140956 112.66369252 25.60140956 112.66369252 23 111 Z M-37.5625 120 C-38.20316406 120.556875 -38.84382813 121.11375 -39.50390625 121.6875 C-39.99761719 122.120625 -40.49132812 122.55375 -41 123 C-39.58319756 127.32046898 -37.46236215 130.00461199 -34.375 133.3125 C-33.14910156 134.63701172 -33.14910156 134.63701172 -31.8984375 135.98828125 C-31.27195313 136.65214844 -30.64546875 137.31601562 -30 138 C-27.36 136.02 -24.72 134.04 -22 132 C-23.88900109 128.22199782 -25.89027889 125.49269528 -28.5625 122.25 C-29.36816406 121.26515625 -30.17382812 120.2803125 -31.00390625 119.265625 C-31.66261719 118.51796875 -32.32132813 117.7703125 -33 117 C-34.87824891 117 -36.21518837 118.82416439 -37.5625 120 Z M-97.625 128.5 C-99.12933594 129.75296875 -99.12933594 129.75296875 -100.6640625 131.03125 C-101.82035156 132.00578125 -101.82035156 132.00578125 -103 133 C-101.61536056 136.12749407 -100.00477577 138.2404985 -97.5625 140.625 C-96.96566406 141.21539062 -96.36882812 141.80578125 -95.75390625 142.4140625 C-93.88218742 144.18443039 -93.88218742 144.18443039 -91 146 C-87.34874189 145.710571 -85.38258558 143.85070345 -82.75 141.4375 C-82.04359375 140.79683594 -81.3371875 140.15617187 -80.609375 139.49609375 C-80.07828125 139.00238281 -79.5471875 138.50867188 -79 138 C-84.27641408 130.81980174 -84.27641408 130.81980174 -90 124 C-93.32685674 124 -95.14305186 126.42208993 -97.625 128.5 Z M5 126 C1.535 128.97 1.535 128.97 -2 132 C-0.90962742 136.36149032 0.24773774 137.71155926 3.25 140.9375 C4.05824219 141.81019531 4.86648437 142.68289063 5.69921875 143.58203125 C8.09450064 146.09931392 10.50315316 148.58369661 13 151 C15.97 147.535 15.97 147.535 19 144 C17.55500134 139.49258939 15.21908693 136.74213767 12 133.3125 C11.113125 132.35988281 10.22625 131.40726563 9.3125 130.42578125 C7.89122512 128.93488311 6.45650258 127.45650258 5 126 Z M-56.625 136 C-57.57246094 136.8353125 -57.57246094 136.8353125 -58.5390625 137.6875 C-59.02117187 138.120625 -59.50328125 138.55375 -60 139 C-56.80173015 144.11723176 -53.04165813 148.52692892 -49 153 C-45.18315774 151.44499019 -42.80804268 148.96404505 -40 146 C-41.78473665 143.82727712 -43.57719352 141.66186229 -45.375 139.5 C-46.13683594 138.56994141 -46.13683594 138.56994141 -46.9140625 137.62109375 C-48.23207606 136.04294593 -49.61212632 134.51707513 -51 133 C-53.77042109 133 -54.58164956 134.1836885 -56.625 136 Z M-17.625 145 C-18.57246094 145.8353125 -18.57246094 145.8353125 -19.5390625 146.6875 C-20.02117187 147.120625 -20.50328125 147.55375 -21 148 C-18.68628822 152.1431583 -15.87866725 155.71270593 -12.8125 159.3125 C-12.34908203 159.86228516 -11.88566406 160.41207031 -11.40820312 160.97851562 C-10.27528137 162.32167028 -9.1380774 163.66121101 -8 165 C-4.52011052 163.86546069 -1.22740018 162.73783087 2 161 C0.40103806 157.3353521 -1.88083423 154.55624414 -4.4375 151.5 C-8.86815693 146.18613139 -8.86815693 146.18613139 -10.66015625 143.65625 C-11.10230469 143.1096875 -11.54445312 142.563125 -12 142 C-14.77042109 142 -15.58164956 143.1836885 -17.625 145 Z M-74.5625 151 C-75.20316406 151.556875 -75.84382813 152.11375 -76.50390625 152.6875 C-76.99761719 153.120625 -77.49132812 153.55375 -78 154 C-75.43937755 156.950475 -72.53328543 158.44996218 -69.0625 160.1875 C-67.50208984 160.98220703 -67.50208984 160.98220703 -65.91015625 161.79296875 C-62.90929129 163.25541216 -62.90929129 163.25541216 -59 163 C-60.62771018 159.26427172 -62.98033305 156.38341608 -65.5625 153.25 C-66.36816406 152.26515625 -67.17382812 151.2803125 -68.00390625 150.265625 C-68.66261719 149.51796875 -69.32132813 148.7703125 -70 148 C-71.87824891 148 -73.21518837 149.82416439 -74.5625 151 Z M-35.5625 160 C-36.20316406 160.556875 -36.84382813 161.11375 -37.50390625 161.6875 C-37.99761719 162.120625 -38.49132812 162.55375 -39 163 C-37.91215032 166.24983135 -37.91215032 166.24983135 -36 169 C-33.64686445 169.07271741 -31.29166332 169.08370868 -28.9375 169.0625 C-27.64714844 169.05347656 -26.35679687 169.04445313 -25.02734375 169.03515625 C-24.02832031 169.02355469 -23.02929688 169.01195312 -22 169 C-23.83127284 165.82542822 -25.72396884 162.9565284 -28.125 160.1875 C-28.90230469 159.28064453 -28.90230469 159.28064453 -29.6953125 158.35546875 C-30.12585938 157.90816406 -30.55640625 157.46085938 -31 157 C-32.87824891 157 -34.21518837 158.82416439 -35.5625 160 Z M34 158 C33.32517578 158.92619141 33.32517578 158.92619141 32.63671875 159.87109375 C25.04198437 169.87057368 15.94584891 176.94535472 5 183 C8.45607961 185.83151977 12.26408029 187.76055043 16.25 189.72265625 C17.29269043 190.24187904 17.29269043 190.24187904 18.35644531 190.77159119 C20.56910567 191.87234811 22.78448345 192.96750503 25 194.0625 C26.48976741 194.80236384 27.97935273 195.54259444 29.46875 196.28320312 C32.20200407 197.64167995 34.93626756 198.99807525 37.671875 200.35180664 C40.11719625 201.5628075 42.56072276 202.7768965 45 204 C46.60664995 202.73782088 46.60664995 202.73782088 48 201 C47.56136159 197.81987151 46.89433493 195.07149418 46 192 C45.46439453 190.11474609 45.46439453 190.11474609 44.91796875 188.19140625 C43.87001298 184.54423039 42.78509417 180.90907392 41.68652344 177.27685547 C40.99392715 174.97985939 40.31328251 172.6795197 39.6328125 170.37890625 C39.19343285 168.91905258 38.7533545 167.45940897 38.3125 166 C38.11035889 165.31156006 37.90821777 164.62312012 37.69995117 163.91381836 C37.19198355 162.25674045 36.60299436 160.62491111 36 159 C35.34 158.67 34.68 158.34 34 158 Z " fill="#FFFFFF" transform="translate(162,139)"/>
<path d="M0 0 C1.52099149 1.33054585 3.02187082 2.68449365 4.5 4.0625 C5.25410156 4.72636719 6.00820313 5.39023438 6.78515625 6.07421875 C21.54326718 19.76913815 30.23795206 39.80041902 31.78564453 59.74316406 C31.89997624 63.47997966 31.91666748 67.1992289 31.875 70.9375 C31.86557373 72.25306885 31.85614746 73.5686377 31.84643555 74.92407227 C31.70045588 84.32667521 31.05046052 92.99649054 28.5 102.0625 C28.00693359 103.85300781 28.00693359 103.85300781 27.50390625 105.6796875 C15.97568166 143.41567525 -10.5090369 174.35400062 -44.8125 193.3125 C-58.58969697 200.62181094 -75.18871473 206.1424025 -90.84375 206.109375 C-104.80523749 206.10228135 -114.09538478 208.6288622 -126.13085938 215.68505859 C-129.85613432 217.85096969 -133.67943041 219.82132501 -137.5 221.8125 C-138.2432251 222.20671143 -138.9864502 222.60092285 -139.75219727 223.00708008 C-151.54817816 229.25574207 -163.54457753 235.12659994 -175.5 241.0625 C-180.57141738 237.33260184 -185.480769 233.48343393 -190.25 229.375 C-193.59541755 226.50358189 -196.92915503 223.65396273 -200.5 221.0625 C-199.99211512 213.83389219 -197.83705295 207.21953795 -195.62922096 200.36051178 C-194.94414587 198.22546755 -194.27116342 196.08695764 -193.60173035 193.94696045 C-191.69956449 187.86747085 -189.79049678 181.79046003 -187.83911133 175.7265625 C-186.64163377 172.00244243 -185.47030453 168.27092174 -184.31494713 164.53353119 C-183.87351433 163.1225427 -183.42271654 161.71444462 -182.96189308 160.30966949 C-180.00436531 151.27867855 -179.14179594 144.37536162 -181.5 135.0625 C-186.49343709 103.14016342 -176.01385648 69.21641561 -157.5625 43.1875 C-156.23232609 41.46041936 -154.87656308 39.75283849 -153.5 38.0625 C-153.08105469 37.54494141 -152.66210938 37.02738281 -152.23046875 36.49414062 C-117.65559563 -6.0020651 -49.78308965 -38.48970357 0 0 Z M-59.3203125 10.3984375 C-60.54557506 12.2060872 -60.54557506 12.2060872 -61.5 15.0625 C-59.19 17.0425 -56.88 19.0225 -54.5 21.0625 C-50.53276517 19.07888258 -49.32094052 17.92242723 -46.75 14.5 C-46.13640625 13.69433594 -45.5228125 12.88867188 -44.890625 12.05859375 C-43.40472852 10.33120477 -43.40472852 10.33120477 -43.5 9.0625 C-51.79203575 7.99560595 -51.79203575 7.99560595 -59.3203125 10.3984375 Z M-29.5 13.0625 C-31.29992512 15.11826732 -33.08985409 17.18146218 -34.875 19.25 C-35.38289062 19.82814453 -35.89078125 20.40628906 -36.4140625 21.00195312 C-39.16793652 24.20876695 -41.21615243 26.95573459 -42.5 31.0625 C-41.5925 31.908125 -40.685 32.75375 -39.75 33.625 C-39.23953125 34.10066406 -38.7290625 34.57632813 -38.203125 35.06640625 C-36.55229791 36.22823347 -36.55229791 36.22823347 -34.578125 36.0390625 C-31.54479618 34.61362603 -30.06394676 32.49380915 -28 29.875 C-27.21753906 28.885 -26.43507813 27.895 -25.62890625 26.875 C-23.45214687 23.99928118 -21.40315374 21.12409515 -19.5 18.0625 C-22.82052768 15.72303731 -25.51532244 13.88542254 -29.5 13.0625 Z M-88.390625 16.8125 C-89.09960938 17.1734375 -89.80859375 17.534375 -90.5390625 17.90625 C-91.26867187 18.2878125 -91.99828125 18.669375 -92.75 19.0625 C-93.49507813 19.4440625 -94.24015625 19.825625 -95.0078125 20.21875 C-96.84224307 21.15948363 -98.67162757 22.11004552 -100.5 23.0625 C-97.69195732 26.02654505 -95.31684226 28.50749019 -91.5 30.0625 C-89.66064138 27.94246003 -87.82843267 25.81692773 -86 23.6875 C-85.47535156 23.08421875 -84.95070313 22.4809375 -84.41015625 21.859375 C-81.49793612 18.88180295 -81.49793612 18.88180295 -80.5 15.0625 C-84.24450732 15.0625 -85.27842126 15.2062013 -88.390625 16.8125 Z M-70.5 25.0625 C-71.96691458 26.61694652 -73.42320641 28.18142175 -74.875 29.75 C-76.09316406 31.05517578 -76.09316406 31.05517578 -77.3359375 32.38671875 C-79.38977509 34.92621107 -80.4900668 36.98275866 -81.5 40.0625 C-78.86 42.0425 -76.22 44.0225 -73.5 46.0625 C-69.54 41.4425 -65.58 36.8225 -61.5 32.0625 C-65.6914126 27.63484987 -65.6914126 27.63484987 -70.5 25.0625 Z M-9.5 27.0625 C-14.97202582 32.68428653 -19.95084342 38.67584096 -24.5 45.0625 C-21.65063897 48.07015886 -19.26488042 50.34095212 -15.5 52.0625 C-8.60162628 43.856627 -8.60162628 43.856627 -2.5 35.0625 C-3.47528737 33.72632648 -4.45533319 32.3936249 -5.4375 31.0625 C-5.98277344 30.32 -6.52804687 29.5775 -7.08984375 28.8125 C-7.55519531 28.235 -8.02054688 27.6575 -8.5 27.0625 C-8.83 27.0625 -9.16 27.0625 -9.5 27.0625 Z M-117.5 36.3125 C-118.386875 37.10140625 -119.27375 37.8903125 -120.1875 38.703125 C-122.7754901 41.10232392 -122.7754901 41.10232392 -124.5 45.0625 C-120.87 48.3625 -117.24 51.6625 -113.5 55.0625 C-110.27037205 51.83287205 -107.19407992 48.66425177 -104.1875 45.25 C-103.49011719 44.45980469 -102.79273438 43.66960937 -102.07421875 42.85546875 C-101.29498047 41.96794922 -101.29498047 41.96794922 -100.5 41.0625 C-103.66474305 37.80733572 -106.82752791 34.74241207 -110.5 32.0625 C-113.71252113 32.0625 -115.17036437 34.21311905 -117.5 36.3125 Z M-51.5 40.0625 C-53.31840385 41.99474132 -55.12974468 43.93283908 -56.9375 45.875 C-57.45376953 46.42220703 -57.97003906 46.96941406 -58.50195312 47.53320312 C-60.81076605 50.02309942 -62.41358514 51.80325542 -63.5 55.0625 C-62.40716423 56.09545436 -61.30029421 57.11357835 -60.1875 58.125 C-59.57261719 58.69347656 -58.95773437 59.26195312 -58.32421875 59.84765625 C-57.42123047 60.44900391 -57.42123047 60.44900391 -56.5 61.0625 C-52.63182635 59.77310878 -51.38934164 57.8828751 -48.8125 54.75 C-48.00425781 53.78449219 -47.19601562 52.81898438 -46.36328125 51.82421875 C-44.12713893 49.06510305 -44.12713893 49.06510305 -44.5 45.0625 C-46.01234366 43.4988243 -46.01234366 43.4988243 -48 42.3125 C-48.6496875 41.88453125 -49.299375 41.4565625 -49.96875 41.015625 C-50.4740625 40.70109375 -50.979375 40.3865625 -51.5 40.0625 Z M-90.5 49.0625 C-92.13067005 50.80749747 -93.75451247 52.55808788 -95.375 54.3125 C-95.83519531 54.80363281 -96.29539062 55.29476562 -96.76953125 55.80078125 C-99.2606093 58.50847478 -100.83027638 60.72305277 -102.5 64.0625 C-100.19 66.0425 -97.88 68.0225 -95.5 70.0625 C-91.30822901 67.9666145 -89.62275614 66.19567508 -86.6875 62.625 C-85.87667969 61.65691406 -85.06585938 60.68882812 -84.23046875 59.69140625 C-83.65941406 58.82386719 -83.08835937 57.95632812 -82.5 57.0625 C-83.61666174 53.71251479 -84.24694925 53.26909778 -87.0625 51.375 C-87.70316406 50.93800781 -88.34382813 50.50101562 -89.00390625 50.05078125 C-89.49761719 49.72464844 -89.99132812 49.39851563 -90.5 49.0625 Z M2.5 50.0625 C0.90328601 51.67650692 -0.62996047 53.3538834 -2.125 55.0625 C-2.94226563 55.990625 -3.75953125 56.91875 -4.6015625 57.875 C-5.22804688 58.596875 -5.85453125 59.31875 -6.5 60.0625 C-3.69195732 63.02654505 -1.31684226 65.50749019 2.5 67.0625 C4.74905348 65.6530727 4.74905348 65.6530727 6.5 63.0625 C6.66311455 58.61762847 5.61784226 54.33946168 4.5 50.0625 C3.84 50.0625 3.18 50.0625 2.5 50.0625 Z M-134.5 55.0625 C-138.50613024 59.84340071 -142.0476835 64.93049698 -143.5 71.0625 C-140.53 73.7025 -137.56 76.3425 -134.5 79.0625 C-130.27832096 76.95166048 -128.66746524 75.18549605 -125.75 71.5625 C-124.95078125 70.5828125 -124.1515625 69.603125 -123.328125 68.59375 C-121.30483648 66.31267054 -121.30483648 66.31267054 -121.5 64.0625 C-123.23391951 62.45615985 -125.038091 60.9249713 -126.875 59.4375 C-127.87273437 58.62023437 -128.87046875 57.80296875 -129.8984375 56.9609375 C-132.23249885 54.86601031 -132.23249885 54.86601031 -134.5 55.0625 Z M-34.5 56.0625 C-36.84218609 58.37057276 -36.84218609 58.37057276 -39.125 61.3125 C-39.92164063 62.28703125 -40.71828125 63.2615625 -41.5390625 64.265625 C-43.75642003 67.07286338 -43.75642003 67.07286338 -44.5 71.0625 C-41.86 73.0425 -39.22 75.0225 -36.5 77.0625 C-35.87351562 76.29164063 -35.24703125 75.52078125 -34.6015625 74.7265625 C-33.78429687 73.72367188 -32.96703125 72.72078125 -32.125 71.6875 C-31.31289063 70.68976563 -30.50078125 69.69203125 -29.6640625 68.6640625 C-27.5 66.0625 -27.5 66.0625 -25.5 64.0625 C-25.5 63.0725 -25.5 62.0825 -25.5 61.0625 C-29.35940447 57.10257007 -29.35940447 57.10257007 -34.5 56.0625 Z M-74.84765625 67.328125 C-75.75843547 68.31758061 -76.66314392 69.3126501 -77.5625 70.3125 C-78.02205078 70.80363281 -78.48160156 71.29476562 -78.95507812 71.80078125 C-81.55522744 74.66438182 -82.53703312 76.21063248 -83.5 80.0625 C-80.86 82.0425 -78.22 84.0225 -75.5 86.0625 C-73.65750794 83.96576797 -71.82606023 81.86096151 -70 79.75 C-69.47535156 79.15509766 -68.95070313 78.56019531 -68.41015625 77.94726562 C-65.25642701 74.50739513 -65.25642701 74.50739513 -64.5 70.0625 C-69.42223728 64.73390241 -69.42223728 64.73390241 -74.84765625 67.328125 Z M-15.5 71.0625 C-17.48571197 73.12469865 -19.34354775 75.19240998 -21.1875 77.375 C-21.71150391 77.96990234 -22.23550781 78.56480469 -22.77539062 79.17773438 C-24.10176247 80.73765922 -25.31064758 82.39574608 -26.5 84.0625 C-25.38333826 87.41248521 -24.75305075 87.85590222 -21.9375 89.75 C-21.29683594 90.18699219 -20.65617188 90.62398437 -19.99609375 91.07421875 C-19.50238281 91.40035156 -19.00867188 91.72648437 -18.5 92.0625 C-16.86932995 90.31750253 -15.24548753 88.56691212 -13.625 86.8125 C-13.16480469 86.32136719 -12.70460938 85.83023438 -12.23046875 85.32421875 C-9.83815688 82.72387976 -7.85854595 80.34174885 -6.5 77.0625 C-7.6196986 76.05656757 -8.7459412 75.0579151 -9.875 74.0625 C-10.50148438 73.505625 -11.12796875 72.94875 -11.7734375 72.375 C-13.40389833 70.86077513 -13.40389833 70.86077513 -15.5 71.0625 Z M-111.5 74.0625 C-113.1549749 75.80457884 -114.79875421 77.55526372 -116.4375 79.3125 C-116.90607422 79.80363281 -117.37464844 80.29476562 -117.85742188 80.80078125 C-120.51735077 83.67120812 -121.52479027 85.16166106 -122.5 89.0625 C-119.86 91.0425 -117.22 93.0225 -114.5 95.0625 C-110.54 90.4425 -106.58 85.8225 -102.5 81.0625 C-106.6914126 76.63484987 -106.6914126 76.63484987 -111.5 74.0625 Z M-54.5 80.0625 C-56.01475333 81.7817895 -57.48663639 83.53896432 -58.9375 85.3125 C-59.74058594 86.28703125 -60.54367187 87.2615625 -61.37109375 88.265625 C-63.68945575 91.13161368 -63.68945575 91.13161368 -65.5 95.0625 C-62.86 97.0425 -60.22 99.0225 -57.5 101.0625 C-55.68159615 99.13025868 -53.87025532 97.19216092 -52.0625 95.25 C-51.54623047 94.70279297 -51.02996094 94.15558594 -50.49804688 93.59179688 C-48.18923395 91.10190058 -46.58641486 89.32174458 -45.5 86.0625 C-46.81030432 85.05962471 -48.12330527 84.06027175 -49.4375 83.0625 C-50.16839844 82.505625 -50.89929688 81.94875 -51.65234375 81.375 C-53.25814368 79.96598055 -53.25814368 79.96598055 -54.5 80.0625 Z M-150.5 83.0625 C-151.36656998 85.80913704 -152.21851786 88.5589243 -153.0625 91.3125 C-153.30935547 92.08980469 -153.55621094 92.86710937 -153.81054688 93.66796875 C-154.03935547 94.42207031 -154.26816406 95.17617187 -154.50390625 95.953125 C-154.71861572 96.64438477 -154.9333252 97.33564453 -155.15454102 98.04785156 C-155.5491764 100.34928704 -155.21084423 101.85866682 -154.5 104.0625 C-149.91283413 99.61868306 -145.71237287 94.86021501 -141.5 90.0625 C-144.34936103 87.05484114 -146.73511958 84.78404788 -150.5 83.0625 Z M2.5 87.0625 C0.48423872 89.1861964 -1.35649375 91.28968966 -3.1875 93.5625 C-3.95416992 94.49255859 -3.95416992 94.49255859 -4.73632812 95.44140625 C-5.99881973 96.97527456 -7.25045294 98.51806832 -8.5 100.0625 C-5.69195732 103.02654505 -3.31684226 105.50749019 0.5 107.0625 C1.33830973 104.29308394 2.17082034 101.52214931 3 98.75 C3.23847656 97.96431641 3.47695313 97.17863281 3.72265625 96.36914062 C3.94824219 95.61181641 4.17382812 94.85449219 4.40625 94.07421875 C4.61572266 93.37772217 4.82519531 92.68122559 5.04101562 91.96362305 C5.61734264 89.90242167 5.61734264 89.90242167 5.5 87.0625 C4.51 87.0625 3.52 87.0625 2.5 87.0625 Z M-93.5 89.0625 C-95.01475333 90.7817895 -96.48663639 92.53896432 -97.9375 94.3125 C-98.74058594 95.28703125 -99.54367187 96.2615625 -100.37109375 97.265625 C-102.08288668 99.51451259 -103.37892018 101.48952993 -104.5 104.0625 C-103.3803014 105.06843243 -102.2540588 106.0670849 -101.125 107.0625 C-100.49851562 107.619375 -99.87203125 108.17625 -99.2265625 108.75 C-97.59610167 110.26422487 -97.59610167 110.26422487 -95.5 110.0625 C-93.93567213 108.36975716 -92.44671428 106.60680148 -91 104.8125 C-90.2059375 103.83796875 -89.411875 102.8634375 -88.59375 101.859375 C-86.91251966 99.61355238 -85.61864101 97.6159197 -84.5 95.0625 C-85.81030432 94.05962471 -87.12330527 93.06027175 -88.4375 92.0625 C-89.16839844 91.505625 -89.89929688 90.94875 -90.65234375 90.375 C-92.25814368 88.96598055 -92.25814368 88.96598055 -93.5 89.0625 Z M-36.5 96.0625 C-38.51576128 98.1861964 -40.35649375 100.28968966 -42.1875 102.5625 C-42.95416992 103.49255859 -42.95416992 103.49255859 -43.73632812 104.44140625 C-44.99881973 105.97527456 -46.25045294 107.51806832 -47.5 109.0625 C-44.69195732 112.02654505 -42.31684226 114.50749019 -38.5 116.0625 C-37.03308542 114.50805348 -35.57679359 112.94357825 -34.125 111.375 C-33.31289063 110.50488281 -32.50078125 109.63476562 -31.6640625 108.73828125 C-29.61022491 106.19878893 -28.5099332 104.14224134 -27.5 101.0625 C-28.428125 100.2375 -29.35625 99.4125 -30.3125 98.5625 C-30.83457031 98.0984375 -31.35664063 97.634375 -31.89453125 97.15625 C-33.589448 95.78098759 -33.589448 95.78098759 -36.5 96.0625 Z M-134.69140625 101.109375 C-135.47386719 102.00140625 -136.25632812 102.8934375 -137.0625 103.8125 C-137.84753906 104.69421875 -138.63257813 105.5759375 -139.44140625 106.484375 C-141.17206088 108.65179825 -142.40698288 110.53379013 -143.5 113.0625 C-142.40716423 114.09545436 -141.30029421 115.11357835 -140.1875 116.125 C-139.57261719 116.69347656 -138.95773437 117.26195312 -138.32421875 117.84765625 C-137.42123047 118.44900391 -137.42123047 118.44900391 -136.5 119.0625 C-132.61629798 117.76793266 -131.42909074 115.85723476 -128.875 112.6875 C-128.07835937 111.71039063 -127.28171875 110.73328125 -126.4609375 109.7265625 C-124.36191304 107.16107408 -124.36191304 107.16107408 -123.5 104.0625 C-124.428125 103.2375 -125.35625 102.4125 -126.3125 101.5625 C-126.83457031 101.0984375 -127.35664063 100.634375 -127.89453125 100.15625 C-130.85340471 98.14047246 -132.19730348 98.77976742 -134.69140625 101.109375 Z M-75.5 105.0625 C-77.80442778 107.40978708 -77.80442778 107.40978708 -80.0625 110.375 C-81.24005859 111.85419922 -81.24005859 111.85419922 -82.44140625 113.36328125 C-83.85572201 115.21772564 -85.20631676 117.12197514 -86.5 119.0625 C-83.86 121.3725 -81.22 123.6825 -78.5 126.0625 C-73.95890328 121.79662126 -70.25264754 117.02637672 -66.5 112.0625 C-67.42652701 110.88710004 -68.36663387 109.72239423 -69.3125 108.5625 C-69.83457031 107.9128125 -70.35664063 107.263125 -70.89453125 106.59375 C-72.49204833 104.71740872 -72.49204833 104.71740872 -75.5 105.0625 Z M-17.5 111.0625 C-19.38811739 113.20688293 -21.23489231 115.36754544 -23.0625 117.5625 C-23.58263672 118.18253906 -24.10277344 118.80257812 -24.63867188 119.44140625 C-25.92838264 120.97959341 -27.21452211 122.52077363 -28.5 124.0625 C-27.02934075 127.64772876 -25.09934458 129.50636096 -22.0625 131.875 C-20.88880859 132.81279297 -20.88880859 132.81279297 -19.69140625 133.76953125 C-18.96824219 134.19621094 -18.24507812 134.62289062 -17.5 135.0625 C-13.49221206 133.72657069 -12.30045204 131.1821496 -10.1875 127.75 C-9.61032227 126.87698242 -9.61032227 126.87698242 -9.02148438 125.98632812 C-6.8761932 122.65082636 -6.8761932 122.65082636 -7.015625 118.84765625 C-8.70337076 116.81791991 -10.41855236 115.35334077 -12.5625 113.8125 C-13.63177734 113.03132812 -13.63177734 113.03132812 -14.72265625 112.234375 C-16.28432602 110.97075688 -16.28432602 110.97075688 -17.5 111.0625 Z M-114.5 114.0625 C-116.0876533 115.75211269 -117.59728694 117.51567371 -119.0625 119.3125 C-120.27099609 120.77429688 -120.27099609 120.77429688 -121.50390625 122.265625 C-123.76029922 125.06625596 -123.76029922 125.06625596 -124.5 129.0625 C-121.86 131.0425 -119.22 133.0225 -116.5 135.0625 C-115.0369343 133.31645451 -113.5797192 131.56550547 -112.125 129.8125 C-110.90683594 128.35070312 -110.90683594 128.35070312 -109.6640625 126.859375 C-107.92148243 124.6072318 -106.623584 122.65538614 -105.5 120.0625 C-106.6196986 119.05656757 -107.7459412 118.0579151 -108.875 117.0625 C-109.50148438 116.505625 -110.12796875 115.94875 -110.7734375 115.375 C-112.40389833 113.86077513 -112.40389833 113.86077513 -114.5 114.0625 Z M-56.5 120.0625 C-58.38811739 122.20688293 -60.23489231 124.36754544 -62.0625 126.5625 C-62.58263672 127.18253906 -63.10277344 127.80257812 -63.63867188 128.44140625 C-64.92838264 129.97959341 -66.21452211 131.52077363 -67.5 133.0625 C-65.70953589 137.19968891 -63.33902629 138.72570139 -59.5 141.0625 C-58.05726615 139.50483138 -56.62103292 137.94114043 -55.1875 136.375 C-54.38699219 135.50488281 -53.58648437 134.63476562 -52.76171875 133.73828125 C-50.68451663 131.28079688 -49.06168424 128.86746684 -47.5 126.0625 C-48.81030432 125.05962471 -50.12330527 124.06027175 -51.4375 123.0625 C-52.16839844 122.505625 -52.89929688 121.94875 -53.65234375 121.375 C-55.25814368 119.96598055 -55.25814368 119.96598055 -56.5 120.0625 Z M-152.5 123.0625 C-154.76959882 124.4067285 -154.76959882 124.4067285 -156.5 127.0625 C-156.75288367 132.31201625 -155.84653249 136.36943502 -153.5 141.0625 C-150.2 137.4325 -146.9 133.8025 -143.5 130.0625 C-147.6914126 125.63484987 -147.6914126 125.63484987 -152.5 123.0625 Z M-95.5 129.0625 C-97.38811739 131.20688293 -99.23489231 133.36754544 -101.0625 135.5625 C-101.58263672 136.18253906 -102.10277344 136.80257812 -102.63867188 137.44140625 C-103.92838264 138.97959341 -105.21452211 140.52077363 -106.5 142.0625 C-104.99776416 146.26876034 -102.21449966 147.80150021 -98.5 150.0625 C-96.8450251 148.32042116 -95.20124579 146.56973628 -93.5625 144.8125 C-93.09392578 144.32136719 -92.62535156 143.83023438 -92.14257812 143.32421875 C-89.70831226 140.69731314 -87.90673782 138.69717843 -87.5 135.0625 C-88.64324839 134.0595458 -89.78967191 133.06020973 -90.9375 132.0625 C-91.57558594 131.505625 -92.21367187 130.94875 -92.87109375 130.375 C-94.28113179 128.95792935 -94.28113179 128.95792935 -95.5 129.0625 Z M-38.5 136.0625 C-40.44877792 138.19269568 -42.29802997 140.33211272 -44.125 142.5625 C-44.640625 143.18253906 -45.15625 143.80257812 -45.6875 144.44140625 C-46.96357936 145.9774277 -48.23246806 147.51941764 -49.5 149.0625 C-48.71753906 149.83851563 -47.93507813 150.61453125 -47.12890625 151.4140625 C-45.51482716 153.04013326 -43.93977492 154.70760766 -42.4375 156.4375 C-41.798125 156.97375 -41.15875 157.51 -40.5 158.0625 C-36.93716414 157.70472569 -35.02600386 156.05156711 -32.4375 153.6875 C-31.76589844 153.08164062 -31.09429687 152.47578125 -30.40234375 151.8515625 C-28.73573492 150.28419732 -27.10506322 148.6925642 -25.5 147.0625 C-26.97158371 143.44752261 -28.91462331 141.65658489 -32 139.3125 C-32.7940625 138.69890625 -33.588125 138.0853125 -34.40625 137.453125 C-36.35875365 135.8780784 -36.35875365 135.8780784 -38.5 136.0625 Z M-134.5 138.0625 C-135.96952902 139.76453057 -137.40018213 141.5002052 -138.8125 143.25 C-139.98232422 144.69439453 -139.98232422 144.69439453 -141.17578125 146.16796875 C-143.2868751 148.79707891 -145.39542494 151.4281692 -147.5 154.0625 C-146.13611867 158.52611162 -144.17118618 160.28686974 -140.5 163.0625 C-138.2717728 160.6061101 -136.05032703 158.14426388 -133.83984375 155.671875 C-132.49235723 154.16916883 -131.13559065 152.67444888 -129.75390625 151.203125 C-127.24269541 148.4818371 -127.24269541 148.4818371 -126.3125 145 C-128.17834511 141.95572641 -130.64684432 140.20236676 -133.5 138.0625 C-133.83 138.0625 -134.16 138.0625 -134.5 138.0625 Z M-77.5 145.0625 C-79.44877792 147.19269568 -81.29802997 149.33211272 -83.125 151.5625 C-83.640625 152.18253906 -84.15625 152.80257812 -84.6875 153.44140625 C-85.96357936 154.9774277 -87.23246806 156.51941764 -88.5 158.0625 C-85.69195732 161.02654505 -83.31684226 163.50749019 -79.5 165.0625 C-78.03618641 163.48423185 -76.57914837 161.89967771 -75.125 160.3125 C-74.31289063 159.43078125 -73.50078125 158.5490625 -72.6640625 157.640625 C-70.8374152 155.46447479 -69.60212006 153.65429881 -68.5 151.0625 C-69.6196986 150.05656757 -70.7459412 149.0579151 -71.875 148.0625 C-72.50148438 147.505625 -73.12796875 146.94875 -73.7734375 146.375 C-75.40389833 144.86077513 -75.40389833 144.86077513 -77.5 145.0625 Z M-116.5 154.0625 C-118.38911317 156.10830018 -120.17288179 158.16366896 -121.9375 160.3125 C-122.42798828 160.89902344 -122.91847656 161.48554688 -123.42382812 162.08984375 C-128.25821913 167.05051034 -128.25821913 167.05051034 -130.5 173.0625 C-129.23581754 173.76215443 -127.96334598 174.44684763 -126.6875 175.125 C-125.62595703 175.69927734 -125.62595703 175.69927734 -124.54296875 176.28515625 C-122.35302199 177.36513511 -122.35302199 177.36513511 -119.5 176.0625 C-117.93381556 174.37147478 -116.44219475 172.61043612 -115 170.8125 C-114.2265625 169.85859375 -113.453125 168.9046875 -112.65625 167.921875 C-110.73764679 165.37764031 -109.07492697 162.82871788 -107.5 160.0625 C-108.6196986 159.05656757 -109.7459412 158.0579151 -110.875 157.0625 C-111.50148438 156.505625 -112.12796875 155.94875 -112.7734375 155.375 C-114.40389833 153.86077513 -114.40389833 153.86077513 -116.5 154.0625 Z M-58.5 160.0625 C-60.01546109 161.5898238 -61.48729893 163.16057963 -62.9375 164.75 C-63.74058594 165.62011719 -64.54367187 166.49023438 -65.37109375 167.38671875 C-67.38943016 169.92352689 -68.49213433 172.00585823 -69.5 175.0625 C-64.8110507 174.50630331 -61.30075733 173.18067327 -57.125 171 C-56.06539062 170.45214844 -55.00578125 169.90429688 -53.9140625 169.33984375 C-53.11742187 168.91832031 -52.32078125 168.49679687 -51.5 168.0625 C-51.5 167.0725 -51.5 166.0825 -51.5 165.0625 C-54.58719014 161.7594803 -54.58719014 161.7594803 -58.5 160.0625 Z M-97.5 169.0625 C-99.00292743 170.87257331 -100.50227171 172.68562236 -102 174.5 C-102.8353125 175.50933594 -103.670625 176.51867187 -104.53125 177.55859375 C-106.60301539 179.66265029 -106.60301539 179.66265029 -106.5 181.0625 C-104.23020335 181.17044277 -101.95894804 181.24806176 -99.6875 181.3125 C-98.42292969 181.35890625 -97.15835938 181.4053125 -95.85546875 181.453125 C-92.42720152 181.41318892 -92.42720152 181.41318892 -90.55078125 179.046875 C-90.20402344 178.39203125 -89.85726562 177.7371875 -89.5 177.0625 C-91.00223584 172.85623966 -93.78550034 171.32349979 -97.5 169.0625 Z M-163.5 170.0625 C-165.65595901 174.90321597 -167.46148875 179.75530334 -169.015625 184.82421875 C-169.23571228 185.53729691 -169.45579956 186.25037506 -169.68255615 186.98506165 C-170.14176977 188.47936863 -170.59879616 189.9743494 -171.05371094 191.4699707 C-171.75223789 193.75732808 -172.46575145 196.03967791 -173.1796875 198.32226562 C-173.62592671 199.78096683 -174.07127107 201.23994214 -174.515625 202.69921875 C-174.73011292 203.37844894 -174.94460083 204.05767914 -175.16558838 204.75749207 C-176.63138726 209.45911508 -176.63138726 209.45911508 -175.5 214.0625 C-174.51 214.7225 -173.52 215.3825 -172.5 216.0625 C-171.74493164 215.66981934 -170.98986328 215.27713867 -170.21191406 214.87255859 C-167.34950727 213.38450936 -164.48666055 211.89731058 -161.62353516 210.41064453 C-160.39582541 209.77295219 -159.16828023 209.13494291 -157.94091797 208.49658203 C-149.83013212 204.27844197 -141.69071455 200.12396466 -133.5 196.0625 C-135.98469929 193.48142504 -138.47660081 191.77571909 -141.5625 189.9375 C-150.059561 184.6029213 -156.97401633 178.44060428 -162.5 170.0625 C-162.83 170.0625 -163.16 170.0625 -163.5 170.0625 Z " fill="#FFFFFF" transform="translate(478.5,126.9375)"/>
<path d="M0 0 C5.99834386 4.31880758 11.59180621 9.0114547 17.16259766 13.86035156 C18.03537354 14.61783691 18.03537354 14.61783691 18.92578125 15.390625 C19.70562378 16.0717334 19.70562378 16.0717334 20.5012207 16.76660156 C22.19483467 18.20239962 22.19483467 18.20239962 25 20 C24.12666081 24.47209893 21.58798045 27.11909015 18.625 30.4375 C17.52691669 31.69233475 16.42927003 32.94755172 15.33203125 34.203125 C14.49599365 35.15348633 14.49599365 35.15348633 13.64306641 36.12304688 C11.16755874 38.95093736 8.73722503 41.8160582 6.3125 44.6875 C5.63006226 45.49380859 5.63006226 45.49380859 4.93383789 46.31640625 C2.10845557 49.6622939 -0.67514697 53.03920959 -3.4375 56.4375 C-7.39508188 61.30129025 -11.46542446 66.05881231 -15.55834961 70.80834961 C-18.58945289 74.33298919 -21.56985316 77.89039882 -24.5 81.5 C-27.93208013 85.7279248 -31.44551171 89.8752789 -35 94 C-38.57306535 98.14699772 -42.10726002 102.31607806 -45.5625 106.5625 C-46.26890625 107.42617188 -46.9753125 108.28984375 -47.703125 109.1796875 C-48.93657848 110.69423413 -50.16826522 112.21027236 -51.38867188 113.73535156 C-52.85250943 115.5617465 -54.33138065 117.37510683 -55.8125 119.1875 C-56.26890869 119.76508057 -56.72531738 120.34266113 -57.19555664 120.93774414 C-58.51953125 122.54296875 -58.51953125 122.54296875 -61 125 C-65.21560739 125 -65.51233539 124.98855446 -68.390625 122.40234375 C-69.01445068 121.8508667 -69.63827637 121.29938965 -70.28100586 120.73120117 C-71.25565796 119.84331909 -71.25565796 119.84331909 -72.25 118.9375 C-72.91588135 118.34493408 -73.5817627 117.75236816 -74.26782227 117.1418457 C-75.58649125 115.96760467 -76.90177323 114.78954726 -78.21337891 113.60742188 C-80.43374701 111.60975809 -82.68301563 109.64651335 -84.9375 107.6875 C-85.95868424 106.79206669 -86.97969454 105.89643451 -88 105 C-84.11307396 99.5430607 -79.86292624 94.56993675 -75.34765625 89.625 C-72.23720985 86.14709653 -69.31156426 82.53497776 -66.375 78.91015625 C-63.82510991 75.78570211 -61.23376456 72.70027196 -58.625 69.625 C-58.16512695 69.08270752 -57.70525391 68.54041504 -57.23144531 67.98168945 C-55.35008017 65.76483383 -53.46699428 63.54944292 -51.58398438 61.33398438 C-46.8648039 55.77931966 -42.15924951 50.21940075 -37.5625 44.5625 C-33.60491812 39.69870975 -29.53457554 34.94118769 -25.44165039 30.19165039 C-21.67872829 25.81603434 -18.01592075 21.36768136 -14.37890625 16.88671875 C-9.67693778 11.18104601 -4.82955215 5.59770426 0 0 Z " fill="#FFFFFF" transform="translate(270,355)"/>
<path d="M0 0 C-0.38557516 2.32828076 -0.64670421 3.6636704 -2.3828125 5.31640625 C-3.24519531 5.93322266 -3.24519531 5.93322266 -4.125 6.5625 C-12.52278137 13.40832999 -17.69934768 24.53998794 -20 35 C-21.42025757 51.84719327 -18.81915697 65.8165584 -8.1640625 79.328125 C-5.57221533 82.36835079 -3.34213132 84.77191245 0 87 C0 87.99 0 88.98 0 90 C-2.1616961 91.13549767 -4.3286189 92.25828972 -6.5 93.375 C-7.10070312 93.69210938 -7.70140625 94.00921875 -8.3203125 94.3359375 C-20.60154653 100.60720594 -36.02528585 101.1463053 -49.1875 97.3125 C-54.43455829 95.42111852 -59.28486164 92.97285209 -64 90 C-63.61442484 87.67171924 -63.35329579 86.3363296 -61.6171875 84.68359375 C-61.04226562 84.27238281 -60.46734375 83.86117187 -59.875 83.4375 C-51.47721863 76.59167001 -46.30065232 65.46001206 -44 55 C-42.57974243 38.15280673 -45.18084303 24.1834416 -55.8359375 10.671875 C-58.42778467 7.63164921 -60.65786868 5.22808755 -64 3 C-64 2.01 -64 1.02 -64 0 C-61.8383039 -1.13549767 -59.6713811 -2.25828972 -57.5 -3.375 C-56.89929688 -3.69210938 -56.29859375 -4.00921875 -55.6796875 -4.3359375 C-37.96890127 -13.37974323 -16.42078126 -10.35315408 0 0 Z " fill="#FFFFFF" transform="translate(288,11)"/>
<path d="M0 0 C3.73892951 1.50224846 5.54093605 3.60165298 8 6.75 C11.5802494 11.24886603 15.23945187 15.65082361 19 20 C23.28988586 24.97615995 27.48779478 30.0134628 31.62109375 35.12109375 C33.46215456 37.34910988 35.32616429 39.54249386 37.22265625 41.72265625 C38.05216797 42.67785156 38.05216797 42.67785156 38.8984375 43.65234375 C39.99179934 44.90739994 41.08934145 46.15882893 42.19140625 47.40625 C46 51.78018188 46 51.78018188 46 54 C44.49212839 55.37491299 42.91460239 56.67364462 41.3125 57.9375 C40.3225 58.72898437 39.3325 59.52046875 38.3125 60.3359375 C37.77882813 60.76229492 37.24515625 61.18865234 36.6953125 61.62792969 C33.69343886 64.05744148 30.75483506 66.56149484 27.8125 69.0625 C26.94782104 69.79617798 26.94782104 69.79617798 26.06567383 70.54467773 C24.709755 71.69563448 23.35477022 72.84769147 22 74 C19.04688061 72.68904505 17.17235391 71.3658972 15.08203125 68.91015625 C14.55472412 68.29648193 14.02741699 67.68280762 13.48413086 67.05053711 C12.93249268 66.39448486 12.38085449 65.73843262 11.8125 65.0625 C11.23443604 64.38517822 10.65637207 63.70785645 10.06079102 63.01000977 C6.08441114 58.33487497 2.18689253 53.59756324 -1.67578125 48.828125 C-4.97400613 44.81482279 -8.36036539 40.87932874 -11.75219727 36.94506836 C-14.87147538 33.3261179 -17.95065229 29.67813657 -21 26 C-19.27176636 21.76844611 -16.28621996 18.64425519 -13.3125 15.25 C-12.77592773 14.63108887 -12.23935547 14.01217773 -11.68652344 13.37451172 C-10.12849142 11.57934704 -8.56503732 9.78905753 -7 8 C-6.22527344 7.11054688 -5.45054687 6.22109375 -4.65234375 5.3046875 C-3.10579259 3.53266379 -1.55576588 1.76393173 0 0 Z " fill="#FFFFFF" transform="translate(284,407)"/>
<path d="M0 0 C4.29769194 2.98101524 6.50281277 6.15946455 8.6875 10.8125 C9.55955078 12.58560547 9.55955078 12.58560547 10.44921875 14.39453125 C15.50224214 26.14249243 16.2230615 41.45223678 12.375 53.75 C9.54948259 60.67351962 6.32739095 67.73173843 0 72 C-6.59872171 66.75035028 -11.26255453 61.58270187 -15 54 C-15.3403125 53.33871094 -15.680625 52.67742187 -16.03125 51.99609375 C-19.85798973 42.94301967 -19.47485422 30.13330185 -16.375 20.9375 C-12.55187113 12.208468 -7.45952595 5.88810297 0 0 Z " fill="#FFFFFF" transform="translate(296,20)"/>
<path d="M0 0 C9.87086025 6.61397743 16.40686388 15.25501725 19 27 C19.87548586 41.48139721 18.60262438 53.42036472 9 65 C6.4492551 67.49088988 3.79774654 69.79162646 1 72 C-3.29769194 69.01898476 -5.50281277 65.84053545 -7.6875 61.1875 C-8.26886719 60.00542969 -8.85023438 58.82335937 -9.44921875 57.60546875 C-14.50224214 45.85750757 -15.2230615 30.54776322 -11.375 18.25 C-8.68520393 11.63559045 -5.28140496 4.90528117 0 0 Z " fill="#FFFFFF" transform="translate(215,20)"/>
<path d="M0 0 C4.38658057 1.05882979 5.82962502 2.38078127 8.625 5.875 C9.73875 7.0815625 9.73875 7.0815625 10.875 8.3125 C12.93667448 11.33138049 13.54891779 13.22305387 13.625 16.875 C11.69376297 20.72505454 9.34692497 23.30058526 6.125 26.125 C5.24457031 26.89714844 4.36414063 27.66929687 3.45703125 28.46484375 C-1.09633076 32.33991184 -5.71395326 36.13041099 -10.375 39.875 C-11.64923828 40.97908203 -11.64923828 40.97908203 -12.94921875 42.10546875 C-16.05223094 44.36901871 -17.7447498 44.46981755 -21.45703125 44.25390625 C-25.97605373 43.36114621 -28.46317469 39.9320411 -31.1875 36.5 C-32.72230659 34.19043481 -33.42646845 32.67341522 -34.125 29.9375 C-32.20391319 22.0930622 -24.32996149 16.96102249 -18.27734375 12.1953125 C-16.30736465 10.62038977 -14.38304238 8.98696175 -12.50390625 7.3046875 C-4.58950401 0.30137456 -4.58950401 0.30137456 0 0 Z " fill="#FFFFFF" transform="translate(342.375,466.125)"/>
<path d="M0 0 C4.89444419 2.95632856 9.09586643 6.53708221 13.375 10.3125 C14.03258301 10.88846924 14.69016602 11.46443848 15.36767578 12.05786133 C16.66289612 13.19257932 17.95704423 14.32852264 19.25 15.46582031 C22.03931922 17.91114425 24.86028064 20.31993691 27.6796875 22.73046875 C29.62833063 24.60416407 29.99216565 25.9529939 30.4375 28.625 C29.67822642 34.48225337 25.32864721 39.11914388 21 43 C17.18807946 44.29951837 15.48126226 44.20361095 11.75 42.625 C7.67982767 40.0275874 4.23086137 36.7212613 0.69921875 33.44921875 C-2.96263957 30.12651952 -6.79765722 27.04015435 -10.65234375 23.9453125 C-15.75571835 19.7165595 -15.75571835 19.7165595 -16.9375 16.25 C-17.03698052 11.07701317 -14.72717554 7.89822432 -11.3828125 4.22265625 C-7.73600807 0.77845206 -5.19592879 -1.10551676 0 0 Z " fill="#FFFFFF" transform="translate(173,467)"/>
<path d="M0 0 C3.63094642 2.64960955 5.89851796 5.01824456 8 9 C7.32195312 9.79921875 6.64390625 10.5984375 5.9453125 11.421875 C5.49986084 11.9475708 5.05440918 12.4732666 4.59545898 13.01489258 C3.60862711 14.17933125 2.62115102 15.34322425 1.63305664 16.5065918 C-0.9003015 19.49503936 -3.41473704 22.49566685 -5.88671875 25.53515625 C-6.56275146 26.36225098 -6.56275146 26.36225098 -7.25244141 27.20605469 C-8.5071437 28.74461993 -9.75567138 30.28821437 -11.00390625 31.83203125 C-11.99197266 32.90517578 -11.99197266 32.90517578 -13 34 C-13.66 34 -14.32 34 -15 34 C-17.19921875 31.734375 -17.19921875 31.734375 -19.6875 28.75 C-20.51636719 27.77546875 -21.34523437 26.8009375 -22.19921875 25.796875 C-24 23 -24 23 -24.0703125 20.8984375 C-22.55429895 18.20944996 -20.62512387 16.76511751 -18.1875 14.875 C-17.20523438 14.10027344 -16.22296875 13.32554687 -15.2109375 12.52734375 C-14.68983398 12.11983887 -14.16873047 11.71233398 -13.63183594 11.29248047 C-10.81439191 9.06095015 -8.06649877 6.74650423 -5.3125 4.4375 C-4.28787057 3.58189931 -3.26314083 2.72641874 -2.23828125 1.87109375 C-1.49964844 1.25363281 -0.76101562 0.63617188 0 0 Z " fill="#FFFFFF" transform="translate(241,355)"/>
</svg>
